<svg width="18" height="18" viewBox="0 0 18 18" fill="none" xmlns="http://www.w3.org/2000/svg">
<path d="M5.65202 3.61685C6.04402 3.61685 6.3618 3.29907 6.3618 2.90707V1.13263C6.3618 0.740629 6.04402 0.422852 5.65202 0.422852C5.26002 0.422852 4.94225 0.740629 4.94225 1.13263V2.90707C4.94225 3.29907 5.26002 3.61685 5.65202 3.61685Z" fill="black"/>
<path d="M3.87759 5.39117C3.87759 4.99917 3.55981 4.6814 3.16781 4.6814H1.39337C1.00137 4.6814 0.683594 4.99917 0.683594 5.39117C0.683594 5.78317 1.00137 6.10095 1.39337 6.10095H3.16781C3.55981 6.10095 3.87759 5.78317 3.87759 5.39117Z" fill="black"/>
<path d="M3.16781 11.7793H1.39337C1.00137 11.7793 0.683594 12.0971 0.683594 12.4891C0.683594 12.8811 1.00137 13.1989 1.39337 13.1989H3.16781C3.55981 13.1989 3.87759 12.8811 3.87759 12.4891C3.87759 12.0971 3.55981 11.7793 3.16781 11.7793Z" fill="black"/>
<path d="M12.7498 0.422852C12.3578 0.422852 12.04 0.740629 12.04 1.13263V2.90707C12.04 3.29907 12.3578 3.61685 12.7498 3.61685C13.1418 3.61685 13.4596 3.29907 13.4596 2.90707V1.13263C13.4596 0.740629 13.1418 0.422852 12.7498 0.422852Z" fill="black"/>
<path d="M5.65202 14.2635C5.26002 14.2635 4.94225 14.5813 4.94225 14.9733V16.7478C4.94225 17.1398 5.26002 17.4575 5.65202 17.4575C6.04402 17.4575 6.3618 17.1398 6.3618 16.7478V14.9733C6.3618 14.5813 6.04402 14.2635 5.65202 14.2635Z" fill="black"/>
<path d="M12.7498 14.2635C12.3578 14.2635 12.04 14.5813 12.04 14.9733V16.7478C12.04 17.1398 12.3578 17.4575 12.7498 17.4575C13.1418 17.4575 13.4596 17.1398 13.4596 16.7478V14.9733C13.4596 14.5813 13.1418 14.2635 12.7498 14.2635Z" fill="black"/>
<path d="M15.234 6.10095H17.0085C17.4005 6.10095 17.7182 5.78317 17.7182 5.39117C17.7182 4.99917 17.4005 4.6814 17.0085 4.6814H15.234C14.842 4.6814 14.5243 4.99917 14.5243 5.39117C14.5243 5.78317 14.842 6.10095 15.234 6.10095Z" fill="black"/>
<path d="M17.0085 11.7793H15.234C14.842 11.7793 14.5243 12.0971 14.5243 12.4891C14.5243 12.8811 14.842 13.1989 15.234 13.1989H17.0085C17.4005 13.1989 17.7182 12.8811 17.7182 12.4891C17.7182 12.0971 17.4005 11.7793 17.0085 11.7793Z" fill="black"/>
<path fill-rule="evenodd" clip-rule="evenodd" d="M12.7498 4.6814C13.1418 4.6814 13.4596 4.99917 13.4596 5.39117V12.4889C13.4596 12.8809 13.1418 13.1987 12.7498 13.1987H5.65202C5.26002 13.1987 4.94225 12.8809 4.94225 12.4889V5.39117C4.94225 4.99917 5.26002 4.6814 5.65202 4.6814H12.7498ZM11.6851 11.7791C11.8811 11.7791 12.04 11.6202 12.04 11.4242V6.45574C12.04 6.25974 11.8811 6.10085 11.6851 6.10085H6.71665C6.52065 6.10085 6.36176 6.25974 6.36176 6.45574V11.4242C6.36176 11.6202 6.52065 11.7791 6.71665 11.7791H11.6851Z" fill="black"/>
</svg>
